####
#
# OBJ File Generated by Meshlab
#
####
# Object r3_sds4_shr75_drf0_hlw0_shx0_shy0_scx41_scy49_scz71.stl.obj
#
# Vertices: 8
# Faces: 12
#
####
vn -0.729888 -1.326753 -1.005888
v -0.019268 -0.035241 -0.035500
vn -0.729888 1.326753 -1.005888
v -0.019268 0.035241 -0.035500
vn 2.411705 -1.326753 -2.135705
v 0.019268 -0.010816 -0.035500
vn 2.411705 1.326753 -2.135705
v 0.019268 0.010816 -0.035500
vn -0.729888 1.326753 1.005888
v -0.019268 0.035241 0.035500
vn -0.729888 -1.326753 1.005888
v -0.019268 -0.035241 0.035500
vn 2.411705 1.326753 2.135705
v 0.019268 0.010816 0.035500
vn 2.411705 -1.326753 2.135705
v 0.019268 -0.010816 0.035500
# 8 vertices, 0 vertices normals

f 1//1 2//2 3//3
f 2//2 4//4 3//3
f 5//5 6//6 7//7
f 6//6 8//8 7//7
f 8//8 6//6 3//3
f 6//6 1//1 3//3
f 6//6 5//5 1//1
f 5//5 2//2 1//1
f 7//7 8//8 4//4
f 8//8 3//3 4//4
f 5//5 7//7 2//2
f 7//7 4//4 2//2
# 12 faces, 0 coords texture

# End of File
