mtllib new-6.mtl
v -0.675704 -0.402418 0.371238
v -0.688964 -0.362640 0.371238
v -0.688964 -0.402418 0.371238
v -0.675704 -0.402418 0.359637
v -0.655816 -0.667601 0.371238
v -0.675704 -0.362640 0.359637
v -0.708852 -0.004642 0.324831
v -0.675704 -0.362640 0.371238
v -0.708852 -0.004642 0.371238
v -0.655816 -0.004642 0.371238
v -0.708852 -0.667601 0.371238
v -0.655816 -0.004642 0.324831
v -0.655816 -0.667601 0.377868
v -0.708852 -0.667601 0.377868
v -0.708852 0.134579 0.371238
v -0.708852 -0.667601 0.324831
v -0.655816 -0.667601 0.324831
v -0.655816 -0.004642 0.377868
v -0.708852 0.134579 0.377868
vn 0.000000 0.000000 -1.000000
vn 0.000000 -1.000000 0.000000
vn 0.000000 1.000000 0.000000
vn 1.000000 0.000000 0.000000
vn -1.000000 0.000000 0.000000
vn 0.000000 0.000000 1.000000
usemtl material-0
f 2//1 1//1 3//1
f 1//1 5//1 3//1
f 1//5 6//5 4//5
f 3//1 9//1 2//1
f 1//1 2//1 8//1
f 5//1 1//1 10//1
f 11//1 3//1 5//1
f 6//5 1//5 8//5
f 2//1 9//1 8//1
f 3//1 11//1 9//1
f 10//1 1//1 8//1
f 12//5 5//5 10//5
f 13//5 10//5 5//5
f 5//2 14//2 11//2
f 16//6 12//6 7//6
f 10//1 8//1 9//1
f 16//4 9//4 11//4
f 15//4 11//4 9//4
f 5//5 12//5 17//5
f 10//5 13//5 18//5
f 14//2 5//2 13//2
f 11//4 19//4 14//4
f 12//6 16//6 17//6
f 9//4 16//4 7//4
f 19//4 11//4 15//4
f 13//1 19//1 18//1
f 19//1 13//1 14//1
usemtl material-1
f 3//6 1//6 2//6
f 3//6 5//6 1//6
f 4//4 6//4 1//4
f 2//6 9//6 3//6
f 8//6 2//6 1//6
f 10//6 1//6 5//6
f 5//6 3//6 11//6
f 8//4 1//4 6//4
f 8//6 9//6 2//6
f 9//6 11//6 3//6
f 8//6 1//6 10//6
f 10//4 5//4 12//4
f 5//4 10//4 13//4
f 11//3 14//3 5//3
f 7//1 12//1 16//1
f 9//6 8//6 10//6
f 11//5 9//5 16//5
f 9//5 11//5 15//5
f 17//4 12//4 5//4
f 18//4 13//4 10//4
f 13//3 5//3 14//3
f 14//5 19//5 11//5
f 17//1 16//1 12//1
f 7//5 16//5 9//5
f 15//5 11//5 19//5
f 18//6 19//6 13//6
f 14//6 13//6 19//6