mtllib new-23.mtl
v 0.013773 0.094802 0.371238
v 0.020403 0.094802 0.364609
v 0.013773 0.021876 0.371238
v 0.013773 0.094802 -0.251943
v 0.020403 0.028506 0.364609
v 0.013773 0.021876 -0.251943
v 0.020403 0.094802 -0.251943
v 0.020403 0.028506 -0.245314
v 0.020403 0.094802 -0.245314
vn 0.000000 -1.000000 0.000000
vn 0.000000 1.000000 0.000000
vn 1.000000 0.000000 0.000000
vn -1.000000 0.000000 0.000000
usemtl material-0
f 1//3 3//3 4//3
f 1//2 2//2 4//2
f 4//1 2//1 1//1
f 6//3 4//3 3//3
f 2//2 7//2 4//2
f 4//1 7//1 2//1
f 5//4 2//4 8//4
f 7//2 2//2 9//2
f 9//1 2//1 7//1
f 9//4 8//4 2//4
usemtl material-1
f 4//4 3//4 1//4
f 3//4 4//4 6//4
f 8//3 2//3 5//3
f 2//3 8//3 9//3