mtllib new-10.mtl
v -0.708852 0.134579 -0.364646
v -0.708852 0.134579 -0.311610
v -0.655816 0.134579 -0.364646
v 0.670103 0.134579 -0.364646
v 0.723140 0.154468 -0.364646
v -0.708852 0.154468 -0.364646
v -0.708852 0.134579 0.377868
v -0.655816 0.134579 0.371238
v 0.670103 0.134579 0.371238
v -0.708852 0.154468 0.377868
v 0.670103 0.134579 0.377868
v -0.655816 0.114691 0.371238
v 0.670103 0.114691 0.371238
v -0.655816 0.134579 0.377868
v 0.723140 0.154468 0.377868
v 0.723140 0.134579 0.377868
v -0.655816 0.114691 0.377868
v 0.007144 0.114691 0.371238
v 0.670103 0.114691 0.377868
v 0.007144 0.114691 0.377868
vn 0.000000 0.000000 -1.000000
vn 0.000000 -1.000000 0.000000
vn 0.000000 1.000000 0.000000
vn 1.000000 0.000000 0.000000
vn -1.000000 0.000000 0.000000
vn 0.000000 0.000000 1.000000
usemtl material-0
f 3//2 2//2 1//2
f 1//3 2//3 3//3
f 8//2 3//2 4//2
f 4//3 3//3 8//3
f 1//6 5//6 6//6
f 8//2 4//2 9//2
f 9//3 4//3 8//3
f 5//2 10//2 6//2
f 13//1 8//1 9//1
f 9//2 14//2 8//2
f 10//2 5//2 15//2
f 10//1 14//1 7//1
f 7//2 8//2 14//2
f 11//4 13//4 9//4
f 14//2 9//2 11//2
f 8//1 18//1 12//1
f 18//1 8//1 13//1
f 16//1 10//1 15//1
f 14//1 10//1 11//1
f 11//1 10//1 16//1
f 16//1 19//1 11//1
f 13//4 11//4 19//4
f 19//1 14//1 11//1
f 18//2 17//2 12//2
f 13//2 20//2 18//2
f 14//1 20//1 17//1
f 20//2 13//2 19//2
f 20//1 14//1 19//1
f 17//2 18//2 20//2
usemtl material-1
f 6//1 5//1 1//1
f 6//3 10//3 5//3
f 9//6 8//6 13//6
f 8//3 14//3 9//3
f 15//3 5//3 10//3
f 7//6 14//6 10//6
f 14//3 8//3 7//3
f 9//5 13//5 11//5
f 11//3 9//3 14//3
f 12//6 18//6 8//6
f 13//6 8//6 18//6
f 15//6 10//6 16//6
f 11//6 10//6 14//6
f 16//6 10//6 11//6
f 11//6 19//6 16//6
f 19//5 11//5 13//5
f 11//6 14//6 19//6
f 12//3 17//3 18//3
f 18//3 20//3 13//3
f 17//6 20//6 14//6
f 19//3 13//3 20//3
f 19//6 14//6 20//6
f 20//3 18//3 17//3