mtllib new-4.mtl
v 0.670103 -0.004642 -0.364646
v 0.723140 0.134579 -0.364646
v 0.670103 -0.667601 -0.364646
v 0.670103 -0.004642 -0.311610
v 0.723140 -0.667601 -0.364646
v 0.670103 -0.667601 -0.311610
v 0.723140 -0.667601 -0.311610
v 0.723140 -0.004642 -0.311610
v 0.689992 -0.402418 -0.311610
v 0.703251 -0.362640 -0.311610
v 0.703251 -0.402418 -0.311610
v 0.689992 -0.362640 -0.311610
vn 0.000000 0.000000 -1.000000
vn 0.000000 -1.000000 0.000000
vn 0.000000 1.000000 0.000000
vn 1.000000 0.000000 0.000000
vn -1.000000 0.000000 0.000000
vn 0.000000 0.000000 1.000000
usemtl material-0
f 3//6 2//6 1//6
f 2//6 3//6 5//6
f 4//4 3//4 1//4
f 5//2 6//2 3//2
f 3//3 6//3 5//3
f 7//5 2//5 5//5
f 3//4 4//4 6//4
f 6//2 5//2 7//2
f 7//3 5//3 6//3
f 8//5 2//5 7//5
f 9//1 6//1 4//1
f 8//1 10//1 4//1
f 6//1 9//1 7//1
f 7//1 11//1 8//1
f 9//1 4//1 12//1
f 8//1 11//1 10//1
f 12//1 4//1 10//1
f 11//1 7//1 9//1
usemtl material-1
f 1//1 2//1 3//1
f 5//1 3//1 2//1
f 1//5 3//5 4//5
f 5//4 2//4 7//4
f 6//5 4//5 3//5
f 7//4 2//4 8//4
f 4//6 6//6 9//6
f 4//6 10//6 8//6
f 7//6 9//6 6//6
f 8//6 11//6 7//6
f 12//6 4//6 9//6
f 10//6 11//6 8//6
f 10//6 4//6 12//6
f 9//6 7//6 11//6