mtllib new-24.mtl
v 0.656844 0.094802 -0.245314
v 0.013773 0.094802 -0.251943
v 0.656844 0.094802 -0.251943
v 0.013773 0.021876 -0.251943
v 0.020403 0.094802 -0.251943
v 0.663473 0.021876 -0.251943
v 0.020403 0.028506 -0.245314
v 0.656844 0.028506 -0.245314
v 0.663473 0.094802 -0.251943
v 0.020403 0.028506 -0.251943
v 0.020403 0.094802 -0.245314
v 0.656844 0.028506 -0.251943
vn 0.000000 0.000000 -1.000000
vn 0.000000 -1.000000 0.000000
vn 0.000000 1.000000 0.000000
vn 1.000000 0.000000 0.000000
vn -1.000000 0.000000 0.000000
vn 0.000000 0.000000 1.000000
usemtl material-0
f 5//3 1//3 3//3
f 3//2 1//2 5//2
f 3//5 8//5 1//5
f 1//4 8//4 3//4
f 10//1 4//1 2//1
f 2//6 4//6 10//6
f 10//1 2//1 5//1
f 5//6 2//6 10//6
f 8//1 11//1 1//1
f 9//1 12//1 3//1
f 3//6 12//6 9//6
f 1//3 5//3 11//3
f 11//2 5//2 1//2
f 12//1 5//1 3//1
f 3//6 5//6 12//6
f 8//5 3//5 12//5
f 12//4 3//4 8//4
f 4//1 10//1 6//1
f 6//6 10//6 4//6
f 11//4 10//4 5//4
f 5//5 10//5 11//5
f 5//1 12//1 10//1
f 10//6 12//6 5//6
f 6//1 12//1 9//1
f 9//6 12//6 6//6
f 11//1 8//1 7//1
f 8//3 10//3 7//3
f 7//2 10//2 8//2
f 10//4 11//4 7//4
f 7//5 11//5 10//5
f 10//3 8//3 12//3
f 12//2 8//2 10//2
f 12//1 6//1 10//1
f 10//6 6//6 12//6
usemtl material-1
f 1//6 11//6 8//6
f 7//6 8//6 11//6