mtllib new-7.mtl
v -0.708852 -0.004642 -0.311610
v -0.655816 -0.004642 -0.311610
v -0.708852 0.015247 -0.311610
v -0.708852 0.114691 -0.311610
v -0.708852 0.015247 0.324831
v -0.708852 0.134579 -0.364646
v -0.708852 0.134579 -0.311610
v -0.702223 0.015247 -0.311610
v -0.708852 -0.004642 0.324831
v -0.708852 -0.004642 0.371238
v -0.655816 -0.004642 0.371238
v -0.655816 0.134579 -0.364646
v -0.708852 0.134579 0.324831
v -0.702223 0.114691 -0.311610
v -0.702223 0.015247 0.324831
v -0.655816 -0.004642 0.324831
v -0.708852 0.154468 -0.364646
v -0.708852 0.114691 0.324831
v -0.702223 0.114691 0.324831
v -0.708852 0.134579 0.371238
v -0.655816 -0.004642 0.377868
v -0.708852 0.134579 0.377868
v -0.655816 0.134579 0.371238
v -0.655816 0.015247 0.377868
v -0.708852 0.154468 0.377868
v -0.655816 0.015247 0.371238
v -0.655816 0.114691 0.371238
v -0.655816 0.114691 0.377868
vn 0.000000 0.000000 -1.000000
vn 0.000000 -1.000000 0.000000
vn 0.000000 1.000000 0.000000
vn 1.000000 0.000000 0.000000
vn -1.000000 0.000000 0.000000
vn 0.000000 0.000000 1.000000
usemtl material-0
f 5//4 1//4 3//4
f 4//1 8//1 3//1
f 3//6 8//6 4//6
f 1//4 5//4 9//4
f 8//2 5//2 3//2
f 2//2 9//2 1//2
f 1//3 9//3 2//3
f 13//4 4//4 7//4
f 8//1 4//1 14//1
f 14//6 4//6 8//6
f 13//4 9//4 5//4
f 5//2 8//2 15//2
f 9//2 2//2 16//2
f 16//3 2//3 9//3
f 17//4 7//4 6//4
f 4//4 13//4 18//4
f 7//2 12//2 13//2
f 13//3 12//3 7//3
f 17//4 13//4 7//4
f 4//3 19//3 14//3
f 14//2 19//2 4//2
f 19//4 8//4 14//4
f 20//4 9//4 13//4
f 13//4 5//4 18//4
f 8//4 19//4 15//4
f 19//6 5//6 15//6
f 16//2 10//2 9//2
f 9//3 10//3 16//3
f 10//2 16//2 11//2
f 11//3 16//3 10//3
f 19//3 4//3 18//3
f 18//2 4//2 19//2
f 13//2 12//2 20//2
f 20//3 12//3 13//3
f 17//4 20//4 13//4
f 9//4 20//4 10//4
f 5//6 19//6 18//6
f 20//1 11//1 10//1
f 11//4 24//4 21//4
f 25//4 20//4 17//4
f 11//1 20//1 26//1
f 20//4 25//4 22//4
f 23//2 22//2 20//2
f 21//1 22//1 24//1
f 24//4 11//4 26//4
f 26//1 20//1 27//1
f 24//1 22//1 28//1
f 26//4 28//4 24//4
f 28//4 26//4 27//4
usemtl material-1
f 3//5 1//5 5//5
f 9//5 5//5 1//5
f 3//3 5//3 8//3
f 7//5 4//5 13//5
f 5//5 9//5 13//5
f 15//3 8//3 5//3
f 6//5 7//5 17//5
f 18//5 13//5 4//5
f 7//5 13//5 17//5
f 14//5 8//5 19//5
f 13//5 9//5 20//5
f 18//5 5//5 13//5
f 15//5 19//5 8//5
f 15//1 5//1 19//1
f 13//5 20//5 17//5
f 10//5 20//5 9//5
f 18//1 19//1 5//1
f 10//6 11//6 20//6
f 21//5 24//5 11//5
f 17//5 20//5 25//5
f 26//6 20//6 11//6
f 22//5 25//5 20//5
f 20//3 22//3 23//3
f 24//6 22//6 21//6
f 26//5 11//5 24//5
f 27//6 20//6 26//6
f 28//6 22//6 24//6
f 24//5 28//5 26//5
f 27//5 26//5 28//5