mtllib new-3.mtl
v 0.670103 -0.004642 0.371238
v 0.670103 -0.004642 0.377868
v 0.670103 -0.004642 0.324831
v 0.723140 0.134579 0.324831
v 0.723140 0.134579 0.377868
v 0.670103 -0.667601 0.324831
v 0.723140 0.108061 0.324831
v 0.670103 -0.667601 0.377868
v 0.723140 -0.004642 0.324831
v 0.723140 -0.667601 0.377868
v 0.723140 -0.667601 0.324831
v 0.689992 -0.362640 0.324831
v 0.723140 0.021876 0.324831
v 0.703251 -0.402418 0.324831
v 0.703251 -0.402418 0.354664
v 0.689992 -0.402418 0.324831
v 0.703251 -0.362640 0.324831
v 0.689992 -0.362640 0.354664
v 0.689992 -0.402418 0.354664
v 0.703251 -0.362640 0.354664
vn 0.000000 0.000000 -1.000000
vn 0.000000 -1.000000 0.000000
vn 0.000000 1.000000 0.000000
vn 1.000000 0.000000 0.000000
vn -1.000000 0.000000 0.000000
vn 0.000000 0.000000 1.000000
usemtl material-0
f 2//4 6//4 1//4
f 1//4 6//4 3//4
f 6//4 2//4 8//4
f 6//6 9//6 3//6
f 4//5 10//5 5//5
f 11//5 4//5 7//5
f 10//1 2//1 5//1
f 2//1 10//1 8//1
f 9//6 6//6 11//6
f 10//5 4//5 11//5
f 11//5 7//5 13//5
f 11//5 13//5 9//5
f 18//4 16//4 12//4
f 12//5 16//5 18//5
f 15//5 17//5 14//5
f 14//4 17//4 15//4
f 15//3 16//3 19//3
f 19//2 16//2 15//2
f 16//4 18//4 19//4
f 19//5 18//5 16//5
f 17//5 15//5 20//5
f 20//4 15//4 17//4
f 18//1 15//1 19//1
f 19//6 15//6 18//6
f 15//1 18//1 20//1
f 20//6 18//6 15//6
usemtl material-1
f 1//5 6//5 2//5
f 3//5 6//5 1//5
f 8//5 2//5 6//5
f 3//1 9//1 6//1
f 5//4 10//4 4//4
f 7//4 4//4 11//4
f 5//6 2//6 10//6
f 8//6 10//6 2//6
f 11//1 6//1 9//1
f 11//4 4//4 10//4
f 13//4 7//4 11//4
f 9//4 13//4 11//4