mtllib new-5.mtl
v -0.708852 -0.667601 -0.311610
v -0.688964 -0.402418 -0.311610
v -0.655816 -0.667601 -0.311610
v -0.708852 -0.004642 -0.311610
v -0.675704 -0.402418 -0.311610
v -0.655816 -0.667601 -0.364646
v -0.708852 -0.667601 -0.364646
v -0.688964 -0.362640 -0.311610
v -0.655816 -0.004642 -0.311610
v -0.655816 -0.402418 -0.331498
v -0.708852 0.015247 -0.311610
v -0.675704 -0.362640 -0.311610
v -0.655816 -0.362640 -0.331498
v -0.655816 -0.004642 -0.364646
v -0.655816 -0.402418 -0.344758
v -0.708852 0.114691 -0.311610
v -0.708852 0.134579 -0.364646
v -0.708852 0.134579 -0.311610
v -0.655816 -0.362640 -0.344758
vn 0.000000 0.000000 -1.000000
vn 0.000000 -1.000000 0.000000
vn 0.000000 1.000000 0.000000
vn 1.000000 0.000000 0.000000
vn -1.000000 0.000000 0.000000
vn 0.000000 0.000000 1.000000
usemtl material-0
f 1//1 2//1 3//1
f 2//1 1//1 4//1
f 5//1 3//1 2//1
f 1//2 6//2 3//2
f 3//3 6//3 1//3
f 7//4 4//4 1//4
f 2//1 4//1 8//1
f 3//1 5//1 9//1
f 6//2 1//2 7//2
f 7//3 1//3 6//3
f 3//5 10//5 6//5
f 4//4 7//4 11//4
f 8//1 4//1 12//1
f 9//1 5//1 12//1
f 9//5 13//5 3//5
f 14//6 7//6 6//6
f 10//5 3//5 13//5
f 6//5 10//5 15//5
f 11//4 7//4 16//4
f 9//1 12//1 4//1
f 13//5 9//5 14//5
f 7//6 14//6 17//6
f 6//5 15//5 14//5
f 16//4 7//4 18//4
f 13//5 14//5 19//5
f 18//4 7//4 17//4
f 19//5 14//5 15//5
usemtl material-1
f 3//6 2//6 1//6
f 4//6 1//6 2//6
f 2//6 3//6 5//6
f 1//5 4//5 7//5
f 8//6 4//6 2//6
f 9//6 5//6 3//6
f 6//4 10//4 3//4
f 11//5 7//5 4//5
f 12//6 4//6 8//6
f 12//6 5//6 9//6
f 3//4 13//4 9//4
f 6//1 7//1 14//1
f 13//4 3//4 10//4
f 15//4 10//4 6//4
f 16//5 7//5 11//5
f 4//6 12//6 9//6
f 14//4 9//4 13//4
f 17//1 14//1 7//1
f 14//4 15//4 6//4
f 18//5 7//5 16//5
f 19//4 14//4 13//4
f 17//5 7//5 18//5
f 15//4 14//4 19//4