mtllib new-18.mtl
v -0.649186 0.094802 0.371238
v -0.642556 0.094802 0.364609
v -0.649186 0.021876 0.371238
v -0.649186 0.094802 -0.251943
v -0.642556 0.028506 0.364609
v -0.649186 0.021876 -0.251943
v -0.642556 0.094802 -0.251943
v -0.642556 0.028506 -0.245314
v -0.642556 0.028506 -0.251943
v -0.642556 0.094802 -0.245314
vn 0.000000 0.000000 -1.000000
vn 0.000000 -1.000000 0.000000
vn 0.000000 1.000000 0.000000
vn 1.000000 0.000000 0.000000
vn -1.000000 0.000000 0.000000
vn 0.000000 0.000000 1.000000
usemtl material-0
f 1//4 3//4 4//4
f 1//3 2//3 4//3
f 4//2 2//2 1//2
f 6//4 4//4 3//4
f 2//3 7//3 4//3
f 4//2 7//2 2//2
f 5//5 2//5 8//5
f 9//1 6//1 4//1
f 4//6 6//6 9//6
f 7//3 2//3 10//3
f 10//2 2//2 7//2
f 10//5 8//5 2//5
usemtl material-1
f 4//5 3//5 1//5
f 3//5 4//5 6//5
f 8//4 2//4 5//4
f 2//4 8//4 10//4