mtllib new-9.mtl
v -0.655816 -0.004642 -0.311610
v -0.655816 -0.004642 -0.364646
v 0.670103 -0.004642 -0.364646
v -0.655816 -0.004642 0.371238
v -0.655816 -0.004642 0.324831
v -0.655816 -0.004642 0.377868
v 0.670103 -0.004642 0.371238
v -0.655816 0.015247 0.377868
v -0.655816 0.015247 0.371238
v 0.670103 -0.004642 -0.311610
v 0.670103 -0.004642 0.377868
v 0.670103 -0.004642 0.324831
v 0.670103 0.015247 0.371238
v 0.007144 0.015247 0.377868
v 0.670103 0.015247 0.377868
v 0.723140 -0.004642 -0.311610
v 0.007144 0.015247 0.371238
v 0.723140 0.021876 -0.311610
v 0.723140 -0.004642 0.324831
vn 0.000000 0.000000 -1.000000
vn 0.000000 -1.000000 0.000000
vn 0.000000 1.000000 0.000000
vn 1.000000 0.000000 0.000000
vn -1.000000 0.000000 0.000000
vn 0.000000 0.000000 1.000000
usemtl material-0
f 3//2 1//2 2//2
f 2//3 1//3 3//3
f 1//2 3//2 5//2
f 5//3 3//3 1//3
f 5//2 3//2 4//2
f 4//3 3//3 5//3
f 4//2 3//2 7//2
f 7//3 3//3 4//3
f 7//2 6//2 4//2
f 7//2 3//2 10//2
f 10//3 3//3 7//3
f 9//1 7//1 4//1
f 8//1 11//1 6//1
f 6//2 7//2 11//2
f 7//2 10//2 12//2
f 12//3 10//3 7//3
f 7//1 9//1 13//1
f 14//3 9//3 8//3
f 11//1 8//1 15//1
f 7//4 15//4 11//4
f 16//2 12//2 10//2
f 10//3 12//3 16//3
f 13//1 9//1 17//1
f 9//3 14//3 17//3
f 15//1 8//1 14//1
f 12//2 16//2 19//2
f 19//3 16//3 12//3
f 17//3 15//3 13//3
f 15//3 17//3 14//3
f 19//5 18//5 16//5
usemtl material-1
f 4//3 6//3 7//3
f 4//6 7//6 9//6
f 6//6 11//6 8//6
f 11//3 7//3 6//3
f 13//6 9//6 7//6
f 8//2 9//2 14//2
f 15//6 8//6 11//6
f 11//5 15//5 7//5
f 17//6 9//6 13//6
f 17//2 14//2 9//2
f 14//6 8//6 15//6
f 13//2 15//2 17//2
f 14//2 17//2 15//2
f 16//4 18//4 19//4