# Blender v2.76 (sub 0) OBJ File: 'walls.blend'
# www.blender.org
o Wall_Right_Cube.004
v -0.365411 1.665186 -1.349775
v -0.365411 1.665186 1.399775
v -0.365411 1.795186 -1.349775
v -0.365411 1.795186 1.399775
v 0.548989 1.665186 -1.349775
v 0.548989 1.665186 1.399775
v 0.548989 1.795186 -1.349775
v 0.548989 1.795186 1.399775
vn -1.000000 0.000000 0.000000
vn 0.000000 1.000000 0.000000
vn 1.000000 0.000000 0.000000
vn 0.000000 -1.000000 0.000000
vn 0.000000 0.000000 -1.000000
vn 0.000000 0.000000 1.000000
s off
f 2//1 4//1 3//1 1//1
f 4//2 8//2 7//2 3//2
f 8//3 6//3 5//3 7//3
f 6//4 2//4 1//4 5//4
f 1//5 3//5 7//5 5//5
f 6//6 8//6 4//6 2//6

